<?xml version="1.0" standalone="no"?>
<!DOCTYPE svg PUBLIC "-//W3C//DTD SVG 20010904//EN"
 "http://www.w3.org/TR/2001/REC-SVG-20010904/DTD/svg10.dtd">
<svg version="1.0" xmlns="http://www.w3.org/2000/svg"
 width="600.000000pt" height="600.000000pt" viewBox="0 0 600.000000 600.000000"
 preserveAspectRatio="xMidYMid meet">
<metadata>
Created by potrace 1.11, written by Peter Selinger 2001-2013
</metadata>
<g transform="translate(0.000000,600.000000) scale(0.100000,-0.100000)"
fill="#000000" stroke="none">
<path d="M2861 5162 c-1 -7 -10 -22 -21 -34 -17 -19 -20 -19 -20 -5 0 9 -4 17
-10 17 -5 0 -10 -7 -10 -16 0 -8 -5 -12 -10 -9 -6 3 -17 -1 -26 -10 -9 -9 -23
-14 -30 -11 -9 3 -11 0 -7 -11 5 -12 2 -15 -10 -10 -19 7 -80 -21 -72 -34 4
-5 0 -6 -7 -4 -8 3 -23 -4 -35 -15 -12 -11 -29 -20 -37 -20 -20 0 -29 -17 -14
-24 7 -3 3 -3 -9 0 -14 3 -23 1 -23 -6 0 -8 -10 -9 -30 -5 -22 5 -32 3 -36 -9
-3 -9 -10 -16 -15 -16 -6 0 -20 -9 -32 -20 -15 -14 -29 -19 -45 -15 -30 8 -72
-19 -142 -89 -30 -31 -60 -56 -68 -56 -10 0 -10 4 2 16 9 8 16 20 16 25 0 6 7
17 15 25 8 9 15 22 15 31 0 13 -3 13 -15 3 -8 -7 -15 -9 -15 -4 0 5 -5 2 -10
-6 -5 -8 -14 -15 -20 -15 -5 0 -10 -4 -11 -10 -2 -23 -21 -46 -34 -41 -13 4
-32 -28 -27 -46 1 -4 -7 -5 -18 -3 -12 2 -18 0 -15 -5 3 -5 1 -11 -5 -15 -5
-3 -10 -1 -10 5 0 6 -4 9 -10 5 -5 -3 -7 -11 -4 -18 6 -15 -16 -62 -31 -66 -5
-1 -9 -9 -9 -16 1 -8 -2 -12 -7 -10 -19 12 -74 -139 -110 -305 -20 -88 -23
-133 -23 -280 0 -96 6 -201 12 -233 7 -33 8 -66 3 -80 -5 -13 -4 -36 4 -57 7
-19 15 -66 19 -104 6 -62 5 -68 -9 -56 -8 7 -15 19 -15 26 0 8 -4 14 -9 14 -5
0 -14 13 -20 29 -13 31 -90 115 -98 107 -3 -2 7 -22 21 -43 14 -20 26 -43 26
-50 0 -7 8 -13 18 -13 18 0 76 -88 70 -107 -4 -13 26 -53 39 -53 16 0 22 -26
26 -130 8 -161 45 -379 77 -445 15 -33 33 -86 40 -117 6 -32 16 -58 22 -58 5
0 7 -7 4 -16 -3 -8 -2 -12 4 -9 11 7 25 -39 17 -58 -6 -17 29 -61 38 -47 4 6
1 17 -5 25 -13 16 -5 55 12 55 5 0 8 -7 4 -15 -3 -9 4 -21 19 -31 14 -9 25
-24 25 -34 0 -10 7 -25 15 -33 11 -12 12 -17 2 -24 -30 -24 -45 -22 -56 8 -5
16 -12 29 -15 29 -12 0 -6 -39 8 -52 13 -14 22 -48 31 -121 2 -20 18 -63 34
-94 34 -64 33 -78 -4 -43 l-25 23 -2 -69 c-3 -146 -1 -188 10 -192 7 -2 9 -8
6 -13 -10 -16 27 -117 50 -136 19 -16 19 -16 7 0 -7 9 -11 17 -8 17 4 0 -5 23
-19 51 -14 28 -24 53 -21 55 2 3 10 -10 18 -27 7 -18 30 -51 52 -73 23 -25 34
-32 27 -18 -13 26 -8 28 16 5 16 -16 16 -16 10 5 -12 37 4 45 30 17 13 -14 24
-30 24 -36 0 -8 17 -13 47 -12 7 1 24 -10 38 -23 14 -13 28 -24 31 -24 4 0 53
-41 86 -73 10 -9 23 -17 28 -17 6 0 10 -4 10 -10 0 -5 4 -10 10 -10 5 0 7 7 4
15 -5 11 -2 13 10 9 10 -4 15 -13 12 -21 -3 -8 -2 -12 3 -9 4 3 13 -6 19 -19
11 -25 32 -34 32 -15 0 5 7 7 15 4 8 -4 15 -12 15 -19 0 -7 13 -16 30 -20 16
-4 32 -11 35 -16 4 -5 17 -9 31 -9 14 0 23 -4 20 -9 -3 -4 5 -6 18 -4 13 3 27
-1 31 -8 6 -8 4 -11 -7 -7 -8 4 -21 2 -29 -4 -11 -8 -11 -9 3 -5 9 3 18 2 20
-3 2 -4 39 -16 83 -25 44 -9 84 -20 89 -26 6 -5 21 -9 35 -9 21 0 23 -2 11
-10 -24 -15 17 -12 65 5 54 19 64 19 58 -4 -5 -18 -2 -19 31 -9 19 6 33 14 31
18 -7 12 48 19 65 9 13 -7 13 -8 0 -9 -22 -1 -63 -48 -56 -65 6 -16 26 -21 26
-6 0 5 15 8 33 7 48 -4 49 -5 44 -18 -2 -7 5 -26 15 -41 11 -15 17 -34 15 -42
-10 -26 25 -25 72 1 36 21 54 40 77 83 16 31 38 70 50 86 92 132 156 296 169
430 l6 70 -20 -32 c-21 -33 -55 -44 -64 -20 -3 7 -6 5 -6 -5 -1 -10 -8 -18
-16 -18 -17 0 -20 16 -4 25 6 4 8 13 5 21 -3 7 -1 16 4 19 6 4 10 19 10 35 0
15 6 31 13 33 7 4 6 6 -4 6 -9 1 -23 -6 -30 -16 -17 -20 -92 -68 -181 -116
-66 -36 -70 -36 -68 1 1 4 10 6 20 4 11 -2 20 2 20 7 0 11 -13 15 -37 12 -7
-1 -13 7 -13 19 0 24 -6 25 -26 6 -11 -11 -11 -16 -1 -19 7 -3 5 -6 -5 -6 -10
-1 -18 3 -18 9 0 5 -7 7 -16 3 -8 -3 -13 -12 -10 -20 3 -8 2 -12 -2 -9 -4 2
-23 -3 -42 -12 -19 -9 -48 -17 -65 -18 -16 -2 -54 -5 -82 -7 -29 -2 -53 0 -53
4 0 5 -10 9 -23 9 -13 0 -28 5 -33 10 -8 8 -19 7 -38 -1 -20 -10 -29 -10 -38
-1 -9 9 -9 12 1 12 7 0 9 5 6 10 -3 6 -16 10 -28 10 -16 0 -18 -3 -9 -9 10 -6
6 -10 -15 -14 -15 -3 -32 -1 -37 4 -6 5 -23 9 -38 9 -28 0 -34 8 -53 65 -5 16
-8 17 -15 5 -8 -12 -10 -10 -10 7 0 13 -9 28 -20 35 -11 7 -20 23 -20 35 0 19
-5 23 -31 23 -24 0 -30 4 -25 15 4 10 -1 15 -14 15 -25 0 -25 8 -2 27 16 13
15 14 -5 10 -12 -3 -31 2 -42 10 -12 8 -25 12 -30 9 -5 -3 -14 1 -21 9 -16 19
-29 19 -49 1 -21 -20 -43 -6 -44 28 -1 14 -8 26 -14 26 -7 0 -13 6 -13 13 0 8
-9 24 -20 37 -12 13 -18 30 -15 37 2 8 1 12 -4 9 -5 -3 -11 3 -14 15 -3 12 0
22 9 26 11 4 10 10 -6 30 -11 14 -20 34 -20 44 0 25 -41 89 -58 89 -7 0 -16
-10 -21 -21 -7 -20 -9 -19 -29 14 -18 31 -19 37 -6 48 12 10 16 8 21 -9 6 -24
23 -30 23 -9 0 12 -27 56 -40 67 -14 10 -30 74 -30 116 0 24 -4 46 -10 49 -5
3 -10 15 -10 26 0 10 -4 19 -10 19 -5 0 -10 9 -10 19 0 11 -5 23 -10 26 -6 3
-7 17 -4 31 4 14 2 24 -5 24 -13 0 -33 73 -25 93 3 8 1 18 -5 21 -6 4 -6 18
-1 36 6 23 5 30 -5 30 -22 0 -40 143 -21 169 8 11 8 13 -1 8 -14 -9 -34 73
-25 105 3 14 1 19 -6 14 -12 -7 -23 21 -24 64 -1 18 -6 30 -14 30 -10 0 -12
17 -9 73 3 39 6 96 8 125 1 37 6 51 15 47 7 -2 12 4 12 15 0 25 18 26 36 3 13
-17 13 -17 15 2 3 41 16 76 33 87 6 5 2 8 -11 8 -25 0 -39 -17 -34 -44 2 -13
-2 -17 -12 -13 -9 3 -18 1 -21 -6 -3 -8 -5 -7 -5 2 -1 8 7 23 17 34 13 15 14
21 4 24 -10 4 -10 8 -1 19 9 11 9 18 1 26 -16 16 -15 28 2 28 13 0 26 28 26
58 0 25 -18 11 -23 -18 -4 -16 -11 -30 -17 -30 -11 0 14 70 29 80 7 4 11 24
25 110 1 9 6 22 11 29 6 11 4 13 -8 8 -10 -3 -17 -2 -17 2 0 5 5 11 12 13 7 3
13 25 14 50 1 26 9 61 18 79 19 39 13 77 -10 58 -12 -10 -12 -14 -2 -20 10 -7
9 -9 -4 -9 -11 0 -18 7 -18 18 0 26 13 41 34 39 11 -1 25 11 37 33 11 19 26
34 33 32 22 -4 30 18 12 31 -13 10 -14 18 -5 51 6 21 8 47 6 57 -3 12 0 19 8
19 8 0 28 13 46 29 17 16 38 27 45 24 9 -3 18 6 25 26 6 17 15 31 21 31 5 0 7
4 4 9 -3 4 3 16 14 26 11 10 20 28 20 39 0 12 12 32 25 45 14 13 25 29 25 36
0 7 5 15 11 17 6 2 12 15 13 28 1 16 8 26 21 29 11 2 23 8 27 15 6 8 8 7 8 -1
0 -7 5 -13 10 -13 6 0 10 6 10 13 0 28 48 56 100 59 8 1 21 7 28 15 7 7 25 13
40 14 15 0 21 3 15 6 -25 10 -12 22 17 17 25 -5 30 -3 30 12 0 13 3 15 11 7
14 -14 49 -4 49 14 0 8 10 23 23 34 19 16 19 18 5 19 -10 0 -18 -6 -19 -12 -1
-7 -5 -2 -9 12 -4 14 -8 19 -9 12z m-501 -282 c-8 -5 -19 -10 -25 -10 -5 0 -3
5 5 10 8 5 20 10 25 10 6 0 3 -5 -5 -10z m-40 -29 c0 -12 -20 -25 -27 -18 -7
7 6 27 18 27 5 0 9 -4 9 -9z m-208 -753 c-8 -8 -9 -4 -5 13 4 13 8 18 11 10 2
-7 -1 -18 -6 -23z m51 -1223 c-3 -9 -8 -14 -10 -11 -3 3 -2 9 2 15 9 16 15 13
8 -4z m135 -488 c13 -15 14 -20 3 -27 -9 -5 -11 -14 -6 -26 13 -31 15 -54 6
-54 -6 0 -15 16 -22 35 -7 19 -17 35 -21 35 -10 0 -10 -14 -1 -24 4 -3 8 -17
10 -29 3 -21 2 -21 -12 -3 -8 11 -15 28 -15 39 0 14 -5 17 -21 12 -19 -6 -21
-4 -17 13 3 11 0 29 -6 39 -7 10 -10 29 -6 43 6 24 6 24 19 -8 15 -37 34 -43
29 -9 -5 39 15 48 30 14 7 -17 20 -40 30 -50z m37 63 c3 -5 1 -10 -4 -10 -6 0
-11 5 -11 10 0 6 2 10 4 10 3 0 8 -4 11 -10z m-171 -25 c3 -8 1 -15 -4 -15 -6
0 -10 7 -10 15 0 8 2 15 4 15 2 0 6 -7 10 -15z m160 -187 c-4 -6 -10 -5 -15 3
-14 22 -10 33 6 19 8 -7 12 -17 9 -22z m231 -98 c10 -31 -4 -44 -25 -25 -15
14 -16 20 -7 31 17 19 25 17 32 -6z m865 -295 c0 -8 -6 -15 -14 -15 -8 0 -22
-3 -32 -7 -16 -6 -15 -4 2 14 23 25 44 29 44 8z m-1012 -34 c3 -8 -1 -12 -9
-9 -7 2 -15 10 -17 17 -3 8 1 12 9 9 7 -2 15 -10 17 -17z m512 -281 c0 -5 9
-10 19 -10 11 0 23 -4 26 -10 3 -6 -4 -10 -17 -10 -13 0 -29 9 -36 20 -7 12
-8 20 -2 20 5 0 10 -4 10 -10z m230 -66 c0 -2 -7 -4 -15 -4 -8 0 -15 4 -15 10
0 5 7 7 15 4 8 -4 15 -8 15 -10z m-52 -1 c-10 -2 -26 -2 -35 0 -10 3 -2 5 17
5 19 0 27 -2 18 -5z"/>
<path d="M2951 5130 c-9 -5 -5 -9 10 -13 28 -7 31 -6 14 10 -6 6 -18 8 -24 3z"/>
<path d="M3310 5099 c0 -5 9 -9 20 -9 25 0 26 -9 3 -25 -16 -12 -15 -13 7 -14
14 0 40 -3 58 -7 21 -4 32 -2 32 5 0 6 -10 11 -22 12 -22 1 -22 1 2 9 l25 7
-30 13 c-37 16 -95 22 -95 9z"/>
<path d="M3443 5045 c0 -8 4 -12 9 -9 4 3 8 0 8 -6 0 -8 -9 -10 -25 -6 -35 9
-31 -9 5 -24 17 -7 30 -18 30 -26 0 -15 35 -28 50 -19 14 9 12 25 -2 23 -7 -2
-12 3 -10 11 3 15 -23 48 -49 61 -11 6 -16 5 -16 -5z"/>
<path d="M3537 4963 c-11 -11 -8 -25 5 -21 7 3 25 -9 40 -26 15 -16 31 -26 35
-22 5 5 2 11 -4 13 -7 3 -13 11 -13 19 0 8 -7 14 -15 14 -9 0 -18 7 -21 15 -7
16 -17 19 -27 8z"/>
<path d="M3455 4940 c3 -5 8 -10 11 -10 2 0 4 5 4 10 0 6 -5 10 -11 10 -5 0
-7 -4 -4 -10z"/>
<path d="M3635 4900 c3 -5 10 -10 16 -10 5 0 9 5 9 10 0 6 -7 10 -16 10 -8 0
-12 -4 -9 -10z"/>
<path d="M2330 4629 c0 -5 5 -7 10 -4 6 3 10 8 10 11 0 2 -4 4 -10 4 -5 0 -10
-5 -10 -11z"/>
<path d="M2150 4090 c-8 -5 -12 -12 -9 -15 4 -3 12 1 19 10 14 17 11 19 -10 5z"/>
<path d="M4135 3969 c-4 -6 -4 -13 -1 -16 8 -8 36 5 36 17 0 13 -27 13 -35 -1z"/>
<path d="M2380 3894 c-46 -24 -88 -44 -93 -44 -5 0 -15 7 -23 15 -14 13 -14
15 1 15 9 0 13 5 10 10 -3 6 -1 10 5 10 7 0 6 5 -2 14 -15 16 -29 11 -22 -8 3
-7 -2 -16 -12 -20 -13 -5 -14 -9 -4 -21 9 -11 9 -15 1 -15 -7 0 -10 -4 -7 -9
4 -5 -2 -7 -12 -4 -22 5 -57 -41 -48 -64 5 -13 4 -13 -8 -4 -16 13 -26 -4 -26
-45 0 -13 -4 -24 -10 -24 -5 0 -10 -9 -10 -20 0 -12 5 -17 14 -14 7 3 16 -2
19 -10 4 -9 13 -13 22 -10 8 3 15 1 15 -5 0 -6 16 -11 35 -11 23 0 35 -5 34
-12 -4 -29 14 -78 30 -79 68 -5 100 -8 126 -14 17 -3 43 -2 59 5 26 9 27 12
14 28 -16 18 -13 52 4 52 6 0 28 -16 50 -36 22 -19 47 -34 56 -32 9 1 22 -1
29 -5 19 -12 73 50 73 84 0 39 18 37 60 -6 23 -22 45 -34 63 -35 15 0 27 -4
27 -9 0 -13 -26 -21 -65 -21 -19 0 -36 -3 -38 -7 -3 -5 21 -6 54 -5 64 4 74
17 44 56 -8 11 -15 23 -15 27 0 13 61 -12 67 -27 3 -8 14 -14 25 -14 14 0 18
5 14 15 -4 11 2 15 23 15 29 0 34 11 18 38 -5 7 -4 12 3 12 12 0 2 53 -12 58
-4 2 -6 7 -3 12 8 13 -17 60 -32 60 -7 0 -13 4 -13 9 0 5 -3 18 -6 28 -5 17
-5 17 6 1 6 -10 19 -18 28 -18 14 1 13 4 -7 20 -12 11 -27 18 -32 15 -4 -3
-27 6 -50 21 -39 24 -49 26 -122 22 -60 -4 -82 -1 -93 10 -11 11 -18 11 -28 3
-11 -9 -15 -9 -19 1 -3 10 -9 10 -23 2 -14 -8 -23 -6 -41 9 -36 32 -62 28
-153 -19z m206 -149 c18 -13 15 -14 -31 -16 -27 0 -85 -2 -128 -3 -83 -3 -91
8 -16 23 72 14 153 13 175 -4z m34 -107 c0 -18 -2 -20 -9 -8 -6 8 -7 18 -5 22
9 14 14 9 14 -14z"/>
<path d="M3686 3903 c4 -15 -1 -18 -33 -17 -21 0 -43 -3 -49 -8 -7 -5 -39 -7
-73 -5 -33 2 -64 0 -68 -4 -4 -4 -39 -12 -77 -18 -51 -9 -76 -19 -92 -36 -23
-25 -40 -78 -30 -94 4 -5 -1 -31 -10 -57 -12 -36 -15 -74 -12 -150 4 -108 10
-129 31 -100 10 14 18 15 40 7 l28 -11 -27 45 c-31 53 -28 78 15 124 39 42 55
39 29 -4 -11 -20 -18 -38 -16 -41 3 -2 26 -5 51 -7 l47 -3 -28 22 -27 22 30
24 c26 20 72 48 80 48 2 0 1 -9 -2 -20 -15 -57 56 -121 112 -100 21 8 57 53
68 85 2 6 14 5 31 -3 23 -10 27 -17 22 -37 -4 -17 0 -30 16 -46 l23 -21 -23 7
c-21 6 -23 5 -13 -13 13 -25 33 -39 29 -20 -2 9 6 12 25 10 15 -2 27 1 27 7 0
6 8 10 18 9 34 -3 75 2 69 8 -10 11 45 75 60 70 7 -3 13 -1 13 4 0 6 8 10 18
10 14 0 15 2 2 10 -12 8 -9 10 12 10 35 0 39 16 17 65 -10 22 -19 46 -19 53 0
18 -58 79 -99 104 -20 12 -48 32 -64 44 -15 13 -48 26 -75 29 -26 4 -55 9 -64
11 -12 4 -15 0 -12 -13z m102 -181 c3 -9 -6 -12 -35 -8 -21 2 -48 5 -61 5 -13
1 -21 5 -17 10 8 14 108 8 113 -7z m-218 -107 c0 -8 -2 -15 -4 -15 -2 0 -6 7
-10 15 -3 8 -1 15 4 15 6 0 10 -7 10 -15z m-180 -65 c0 -5 -4 -10 -10 -10 -5
0 -10 5 -10 10 0 6 5 10 10 10 6 0 10 -4 10 -10z"/>
<path d="M2160 3860 c0 -5 5 -10 11 -10 5 0 7 5 4 10 -3 6 -8 10 -11 10 -2 0
-4 -4 -4 -10z"/>
<path d="M4160 3803 c-8 -9 -10 -18 -5 -20 6 -2 10 -93 9 -231 -1 -125 2 -254
6 -287 l6 -60 18 40 c27 62 32 163 11 209 -13 28 -15 40 -7 45 8 5 10 27 7 61
-2 30 0 59 4 64 5 6 11 24 15 40 4 16 16 41 27 54 41 53 11 72 -36 22 -16 -16
-31 -27 -34 -25 -2 3 -4 28 -2 55 1 28 1 50 -1 50 -2 -1 -10 -8 -18 -17z"/>
<path d="M4246 3626 c-17 -28 -22 -106 -6 -106 6 0 10 12 10 28 0 15 4 43 10
61 12 43 7 49 -14 17z"/>
<path d="M3635 3490 c3 -5 8 -10 11 -10 2 0 4 5 4 10 0 6 -5 10 -11 10 -5 0
-7 -4 -4 -10z"/>
<path d="M3670 3485 c7 -9 15 -13 17 -11 7 7 -7 26 -19 26 -6 0 -6 -6 2 -15z"/>
<path d="M3605 3480 c3 -5 8 -10 11 -10 2 0 4 5 4 10 0 6 -5 10 -11 10 -5 0
-7 -4 -4 -10z"/>
<path d="M2897 3166 c-10 -14 -24 -26 -31 -26 -19 0 -56 -91 -56 -139 0 -50
37 -129 64 -137 12 -3 40 -13 63 -22 37 -15 43 -21 44 -47 1 -17 3 -22 6 -12
2 9 8 17 13 17 5 0 7 7 4 15 -4 8 -2 15 4 15 6 0 17 2 25 6 8 3 27 -6 43 -19
33 -27 71 -40 80 -26 9 14 68 10 91 -6 21 -14 24 -14 43 5 11 11 25 20 30 20
6 0 10 3 10 8 0 4 21 16 46 27 55 24 65 44 59 126 -5 72 -42 152 -72 157 -11
2 -24 15 -30 30 l-11 27 -1 -32 c-1 -28 2 -33 22 -33 34 0 71 -81 63 -135 -4
-21 -9 -41 -11 -44 -14 -14 -48 -5 -65 17 l-20 24 -43 -47 -43 -48 -85 9 c-82
9 -84 10 -101 43 -23 47 -37 53 -66 30 -25 -20 -86 -25 -110 -10 -8 4 -16 26
-19 48 -5 40 7 73 42 118 15 19 17 19 26 2 6 -9 14 -15 20 -12 13 9 11 38 -4
59 -13 17 -14 17 -30 -8z"/>
<path d="M2160 3104 c0 -8 5 -12 10 -9 6 3 10 10 10 16 0 5 -4 9 -10 9 -5 0
-10 -7 -10 -16z"/>
<path d="M2061 2604 c0 -11 3 -14 6 -6 3 7 2 16 -1 19 -3 4 -6 -2 -5 -13z"/>
<path d="M2275 2610 c3 -5 11 -10 16 -10 6 0 7 5 4 10 -3 6 -11 10 -16 10 -6
0 -7 -4 -4 -10z"/>
<path d="M2945 2584 c-75 -31 -94 -37 -125 -36 -62 3 -85 1 -94 -8 -6 -6 -17
-10 -26 -10 -19 0 -50 -31 -50 -49 0 -10 9 -11 33 -6 41 8 71 9 130 1 30 -4
67 0 105 11 79 22 310 21 378 -2 31 -10 75 -16 119 -15 39 1 72 1 75 0 3 -1
17 -3 33 -4 30 -2 36 16 12 36 -9 7 -23 20 -32 28 -32 30 -75 38 -107 21 -22
-12 -30 -13 -33 -3 -3 6 -13 12 -24 12 -11 0 -37 9 -59 20 -31 16 -56 19 -137
18 -54 -1 -107 1 -118 5 -12 4 -45 -4 -80 -19z"/>
<path d="M2130 2538 c0 -9 5 -20 10 -23 13 -8 13 5 0 25 -8 13 -10 13 -10 -2z"/>
<path d="M2140 2491 c0 -6 4 -13 10 -16 6 -3 7 1 4 9 -7 18 -14 21 -14 7z"/>
<path d="M3042 2432 c-52 -2 -72 -6 -69 -15 2 -7 14 -11 25 -11 12 1 22 -3 22
-7 0 -5 8 -9 18 -9 10 0 22 -4 28 -10 9 -9 112 7 177 26 34 11 16 22 -35 21
-29 0 -62 2 -73 4 -11 3 -53 3 -93 1z"/>
<path d="M3521 2038 c-1 -32 4 -34 25 -13 14 13 14 15 1 15 -9 0 -18 6 -20 13
-3 6 -6 0 -6 -15z"/>
<path d="M3587 2028 c-7 -24 0 -38 11 -23 4 6 21 17 37 24 19 9 25 15 16 19
-7 2 -17 -1 -21 -9 -7 -10 -12 -10 -23 -1 -12 10 -16 8 -20 -10z"/>
<path d="M3472 1971 c-25 -21 -29 -51 -7 -51 8 0 15 6 15 14 0 8 7 16 15 20
16 6 21 36 7 36 -5 0 -19 -8 -30 -19z"/>
<path d="M3545 1960 c3 -5 11 -10 16 -10 6 0 7 5 4 10 -3 6 -11 10 -16 10 -6
0 -7 -4 -4 -10z"/>
<path d="M2300 1783 c0 -5 10 -18 23 -29 l22 -19 -20 25 c-11 14 -21 27 -22
29 -2 2 -3 0 -3 -6z"/>
<path d="M2405 1750 c-3 -5 -1 -10 4 -10 6 0 11 5 11 10 0 6 -2 10 -4 10 -3 0
-8 -4 -11 -10z"/>
<path d="M2764 1504 c3 -9 6 -18 6 -20 0 -2 5 -4 10 -4 6 0 10 9 10 20 0 12
-7 20 -16 20 -11 0 -14 -5 -10 -16z"/>
<path d="M3020 1439 c0 -5 5 -7 10 -4 6 3 10 8 10 11 0 2 -4 4 -10 4 -5 0 -10
-5 -10 -11z"/>
<path d="M3117 854 c7 -41 17 -92 22 -112 5 -20 13 -72 16 -115 4 -42 12 -80
17 -83 6 -4 8 5 5 22 -3 16 -8 56 -12 89 -12 125 -42 275 -54 275 -4 0 -1 -34
6 -76z"/>
</g>
</svg>
